<mxfile host="app.diagrams.net" modified="2022-01-28T23:53:13.157Z" agent="5.0 (Windows NT 10.0; Win64; x64) AppleWebKit/537.36 (KHTML, like Gecko) Chrome/100.0.4857.0 Safari/537.36" etag="sybOsLTgdyY3w8Hh4eMj" version="16.5.2" type="github">
  <diagram id="hzD9FOgZB3Bx36h0GEBE" name="Page-1">
    <mxGraphModel dx="900" dy="1062" grid="1" gridSize="10" guides="1" tooltips="1" connect="1" arrows="1" fold="1" page="1" pageScale="1" pageWidth="827" pageHeight="1169" math="0" shadow="0">
      <root>
        <mxCell id="0" />
        <mxCell id="1" parent="0" />
        <mxCell id="IMw8Zu4ajvkk-5NAZ4eq-9" style="edgeStyle=orthogonalEdgeStyle;rounded=0;orthogonalLoop=1;jettySize=auto;html=1;exitX=0.5;exitY=1;exitDx=0;exitDy=0;entryX=0.5;entryY=0;entryDx=0;entryDy=0;" edge="1" parent="1" source="IMw8Zu4ajvkk-5NAZ4eq-1" target="IMw8Zu4ajvkk-5NAZ4eq-3">
          <mxGeometry relative="1" as="geometry" />
        </mxCell>
        <mxCell id="IMw8Zu4ajvkk-5NAZ4eq-1" value="" style="rounded=0;whiteSpace=wrap;html=1;" vertex="1" parent="1">
          <mxGeometry x="280" y="155" width="120" height="60" as="geometry" />
        </mxCell>
        <mxCell id="IMw8Zu4ajvkk-5NAZ4eq-2" value="SmartGWT" style="text;html=1;strokeColor=none;fillColor=none;align=center;verticalAlign=middle;whiteSpace=wrap;rounded=0;" vertex="1" parent="1">
          <mxGeometry x="290" y="170" width="100" height="30" as="geometry" />
        </mxCell>
        <mxCell id="IMw8Zu4ajvkk-5NAZ4eq-3" value="" style="rounded=0;whiteSpace=wrap;html=1;" vertex="1" parent="1">
          <mxGeometry x="280" y="290" width="120" height="60" as="geometry" />
        </mxCell>
        <mxCell id="IMw8Zu4ajvkk-5NAZ4eq-4" value="Javascript" style="text;html=1;strokeColor=none;fillColor=none;align=center;verticalAlign=middle;whiteSpace=wrap;rounded=0;" vertex="1" parent="1">
          <mxGeometry x="310" y="305" width="60" height="30" as="geometry" />
        </mxCell>
        <mxCell id="IMw8Zu4ajvkk-5NAZ4eq-8" style="edgeStyle=orthogonalEdgeStyle;rounded=0;orthogonalLoop=1;jettySize=auto;html=1;exitX=0.5;exitY=1;exitDx=0;exitDy=0;entryX=0.5;entryY=0;entryDx=0;entryDy=0;" edge="1" parent="1" source="IMw8Zu4ajvkk-5NAZ4eq-5" target="IMw8Zu4ajvkk-5NAZ4eq-1">
          <mxGeometry relative="1" as="geometry" />
        </mxCell>
        <mxCell id="IMw8Zu4ajvkk-5NAZ4eq-5" value="" style="rounded=0;whiteSpace=wrap;html=1;" vertex="1" parent="1">
          <mxGeometry x="280" y="20" width="120" height="60" as="geometry" />
        </mxCell>
        <mxCell id="IMw8Zu4ajvkk-5NAZ4eq-6" value="Text" style="text;html=1;strokeColor=none;fillColor=none;align=center;verticalAlign=middle;whiteSpace=wrap;rounded=0;" vertex="1" parent="1">
          <mxGeometry x="380" y="210" width="60" height="30" as="geometry" />
        </mxCell>
        <mxCell id="IMw8Zu4ajvkk-5NAZ4eq-7" value="Java" style="text;html=1;strokeColor=none;fillColor=none;align=center;verticalAlign=middle;whiteSpace=wrap;rounded=0;" vertex="1" parent="1">
          <mxGeometry x="310" y="35" width="60" height="30" as="geometry" />
        </mxCell>
      </root>
    </mxGraphModel>
  </diagram>
</mxfile>
